<?xml version="1.0" encoding="utf-8"?>
<svg x="0pt" y="0pt" width="512pt" height="512pt" viewBox="0 0 512 512" xmlns="http://www.w3.org/2000/svg" xmlns:xlink="http://www.w3.org/1999/xlink">
  <g id="1">
    <title>Layer 1</title>
    <clipPath id="3">
      <use xlink:href="#2"/>
      <path id="2" d="M0,0 C0,0,512,0,512,0 C512,0,512,512,512,512 C512,512,0,512,0,512 C0,512,0,0,0,0 z"/>
    </clipPath>
    <g id="4" style="clip-path:url(#3);">
      <title>ClipGroup</title>
      <g id="5">
        <title>Group</title>
        <defs>
          <title>Shape 1</title>
          <g id="6">
            <defs>
              <path id="7" d="M371.273,397.081 C355.322,381.13,339.371,365.179,323.42,349.228 C306.372,332.18,332.154,306.346,349.227,323.421 C365.178,339.372,381.129,355.324,397.08,371.275 C414.13,388.322,388.344,414.153,371.273,397.081 z"/>
            </defs>
            <use xlink:href="#7" style="fill:#fb3732;fill-opacity:1;fill-rule:evenodd;opacity:1;stroke:none;"/>
          </g>
        </defs>
        <use xlink:href="#6"/>
        <defs>
          <title>Shape 2</title>
          <g id="8">
            <defs>
              <path id="9" d="M437.27,274.249 C414.711,274.249,392.153,274.249,369.594,274.249 C345.48,274.249,345.455,237.752,369.594,237.752 C392.153,237.752,414.711,237.752,437.27,237.752 C461.384,237.751,461.409,274.249,437.27,274.249 z"/>
            </defs>
            <use xlink:href="#9" style="fill:#fb3732;fill-opacity:1;fill-rule:evenodd;opacity:1;stroke:none;"/>
          </g>
        </defs>
        <use xlink:href="#8"/>
        <defs>
          <title>Shape 3</title>
          <g id="10">
            <defs>
              <path id="11" d="M323.42,162.772 C339.371,146.821,355.322,130.87,371.273,114.919 C388.323,97.867,414.149,123.658,397.08,140.726 C381.129,156.677,365.178,172.629,349.227,188.58 C332.176,205.632,306.351,179.841,323.42,162.772 z"/>
            </defs>
            <use xlink:href="#11" style="fill:#fb3732;fill-opacity:1;fill-rule:evenodd;opacity:1;stroke:none;"/>
          </g>
        </defs>
        <use xlink:href="#10"/>
      </g>
      <g id="12">
        <title>Group</title>
        <defs>
          <title>Shape 4</title>
          <g id="13">
            <defs>
              <path id="14" d="M371.602,437.02 C371.602,437.02,371.602,437.02,371.602,437.02 C353.567,418.984,353.567,389.638,371.602,371.603 C389.638,353.568,418.984,353.567,437.019,371.603 C455.054,389.639,455.054,418.984,437.019,437.02 C418.985,455.052,389.639,455.056,371.602,437.02 z"/>
            </defs>
            <use xlink:href="#14" style="fill:#ff423d;fill-opacity:1;fill-rule:evenodd;opacity:1;stroke:none;"/>
          </g>
        </defs>
        <use xlink:href="#13"/>
        <defs>
          <title>Shape 5</title>
          <g id="15">
            <defs>
              <path id="16" d="M465.743,302.256 C440.237,302.256,419.487,281.506,419.487,255.999 C419.487,230.492,440.237,209.742,465.743,209.742 C491.249,209.742,512,230.492,512,255.999 C512,281.506,491.249,302.256,465.743,302.256 z"/>
            </defs>
            <use xlink:href="#16" style="fill:#ff423d;fill-opacity:1;fill-rule:evenodd;opacity:1;stroke:none;"/>
          </g>
        </defs>
        <use xlink:href="#15"/>
        <defs>
          <title>Shape 6</title>
          <g id="17">
            <defs>
              <path id="18" d="M371.602,140.397 C353.567,122.361,353.567,93.016,371.602,74.98 C389.638,56.945,418.984,56.943,437.019,74.98 C455.054,93.016,455.054,122.361,437.019,140.397 C437.019,140.397,437.019,140.397,437.019,140.397 C418.985,158.432,389.638,158.434,371.602,140.397 z"/>
            </defs>
            <use xlink:href="#18" style="fill:#ff423d;fill-opacity:1;fill-rule:evenodd;opacity:1;stroke:none;"/>
          </g>
        </defs>
        <use xlink:href="#17"/>
        <defs>
          <title>Shape 7</title>
          <g id="19">
            <defs>
              <path id="20" d="M256,160.653 C245.922,160.653,237.751,152.482,237.751,142.404 C237.751,142.404,237.751,74.73,237.751,74.73 C237.751,50.616,274.248,50.591,274.248,74.73 C274.248,97.2887,274.248,119.847,274.248,142.406 C274.249,152.484,266.078,160.653,256,160.653 z"/>
            </defs>
            <use xlink:href="#20" style="fill:#ff423d;fill-opacity:1;fill-rule:evenodd;opacity:1;stroke:none;"/>
          </g>
        </defs>
        <use xlink:href="#19"/>
      </g>
      <defs>
        <title>Shape 8</title>
        <g id="21">
          <defs>
            <path id="22" d="M256,56.481 C256,91.2053,256,125.93,256,160.654 C266.078,160.654,274.249,152.483,274.249,142.405 C274.249,142.405,274.249,74.73,274.249,74.73 C274.249,64.651,266.078,56.481,256,56.481 z"/>
          </defs>
          <use xlink:href="#22" style="fill:#8327b0;fill-opacity:1;fill-rule:evenodd;opacity:1;stroke:none;"/>
        </g>
      </defs>
      <use xlink:href="#21"/>
      <defs>
        <title>Shape 9</title>
        <g id="23">
          <defs>
            <path id="24" d="M237.751,437.27 C237.751,414.711,237.751,392.153,237.751,369.594 C237.751,345.48,274.248,345.455,274.248,369.594 C274.248,392.153,274.248,414.711,274.248,437.27 C274.249,461.384,237.751,461.409,237.751,437.27 z"/>
          </defs>
          <use xlink:href="#24" style="fill:#ff423d;fill-opacity:1;fill-rule:evenodd;opacity:1;stroke:none;"/>
        </g>
      </defs>
      <use xlink:href="#23"/>
      <defs>
        <title>Shape 10</title>
        <g id="25">
          <defs>
            <path id="26" d="M256,351.346 C256,386.07,256,420.795,256,455.519 C266.078,455.519,274.249,447.348,274.249,437.27 C274.249,414.711,274.249,392.153,274.249,369.594 C274.249,359.516,266.078,351.346,256,351.346 z"/>
          </defs>
          <use xlink:href="#26" style="fill:#8327b0;fill-opacity:1;fill-rule:evenodd;opacity:1;stroke:none;"/>
        </g>
      </defs>
      <use xlink:href="#25"/>
      <g id="27">
        <title>Group</title>
        <defs>
          <title>Shape 11</title>
          <g id="28">
            <defs>
              <path id="29" d="M162.772,188.58 C146.821,172.629,130.87,156.677,114.919,140.726 C97.871,123.678,123.653,97.845,140.726,114.919 C156.677,130.87,172.628,146.821,188.579,162.772 C205.629,179.821,179.843,205.652,162.772,188.58 z"/>
            </defs>
            <use xlink:href="#29" style="fill:#ff423d;fill-opacity:1;fill-rule:evenodd;opacity:1;stroke:none;"/>
          </g>
        </defs>
        <use xlink:href="#28"/>
        <defs>
          <title>Shape 12</title>
          <g id="30">
            <defs>
              <path id="31" d="M142.406,274.249 C142.406,274.249,74.73,274.249,74.73,274.249 C50.616,274.249,50.591,237.752,74.73,237.752 C97.2887,237.752,119.847,237.752,142.406,237.752 C166.519,237.751,166.544,274.249,142.406,274.249 z"/>
            </defs>
            <use xlink:href="#31" style="fill:#ff423d;fill-opacity:1;fill-rule:evenodd;opacity:1;stroke:none;"/>
          </g>
        </defs>
        <use xlink:href="#30"/>
        <defs>
          <title>Shape 13</title>
          <g id="32">
            <defs>
              <path id="33" d="M114.919,371.273 C130.87,355.322,146.821,339.37,162.772,323.419 C179.822,306.366,205.648,332.158,188.579,349.226 C172.628,365.177,156.677,381.128,140.726,397.079 C123.816,413.991,97.633,388.56,114.919,371.273 z"/>
            </defs>
            <use xlink:href="#33" style="fill:#ff423d;fill-opacity:1;fill-rule:evenodd;opacity:1;stroke:none;"/>
          </g>
        </defs>
        <use xlink:href="#32"/>
      </g>
      <g id="34">
        <title>Group</title>
        <defs>
          <title>Shape 14</title>
          <g id="35">
            <defs>
              <path id="36" d="M256,92.514 C230.494,92.514,209.743,71.763,209.743,46.257 C209.743,20.75,230.493,0,256,0 C281.506,0,302.257,20.75,302.257,46.257 C302.257,71.762,281.506,92.514,256,92.514 z"/>
            </defs>
            <use xlink:href="#36" style="fill:#ff5e5b;fill-opacity:1;fill-rule:evenodd;opacity:1;stroke:none;"/>
          </g>
        </defs>
        <use xlink:href="#35"/>
        <defs>
          <title>Shape 15</title>
          <g id="37">
            <defs>
              <path id="38" d="M256,512 C230.494,512,209.743,491.25,209.743,465.743 C209.743,440.237,230.494,419.486,256,419.486 C281.506,419.486,302.257,440.237,302.257,465.743 C302.257,491.249,281.506,512,256,512 z"/>
            </defs>
            <use xlink:href="#38" style="fill:#ff5e5b;fill-opacity:1;fill-rule:evenodd;opacity:1;stroke:none;"/>
          </g>
        </defs>
        <use xlink:href="#37"/>
      </g>
      <defs>
        <title>Shape 16</title>
        <g id="39">
          <defs>
            <path id="40" d="M256,419.486 C256,419.486,256,512,256,512 C281.506,512,302.257,491.25,302.257,465.743 C302.257,440.238,281.506,419.486,256,419.486 z"/>
          </defs>
          <use xlink:href="#40" style="fill:#8327b0;fill-opacity:1;fill-rule:evenodd;opacity:1;stroke:none;"/>
        </g>
      </defs>
      <use xlink:href="#39"/>
      <g id="41">
        <title>Group</title>
        <defs>
          <title>Shape 17</title>
          <g id="42">
            <defs>
              <path id="43" d="M74.98,140.397 C56.902,122.32,56.9,93.06,74.98,74.98 C93.015,56.947,122.362,56.944,140.397,74.98 C140.397,74.98,140.398,74.98,140.398,74.98 C158.433,93.016,158.433,122.361,140.398,140.397 C122.364,158.432,93.017,158.434,74.98,140.397 z"/>
            </defs>
            <use xlink:href="#43" style="fill:#ff5e5b;fill-opacity:1;fill-rule:evenodd;opacity:1;stroke:none;"/>
          </g>
        </defs>
        <use xlink:href="#42"/>
        <defs>
          <title>Shape 18</title>
          <g id="44">
            <defs>
              <path id="45" d="M46.257,302.256 C20.751,302.256,0,281.506,0,256 C0,230.494,20.751,209.743,46.257,209.743 C71.763,209.743,92.512,230.493,92.512,256 C92.512,281.507,71.762,302.256,46.257,302.256 z"/>
            </defs>
            <use xlink:href="#45" style="fill:#ff5e5b;fill-opacity:1;fill-rule:evenodd;opacity:1;stroke:none;"/>
          </g>
        </defs>
        <use xlink:href="#44"/>
        <defs>
          <title>Shape 19</title>
          <g id="46">
            <defs>
              <path id="47" d="M74.98,437.02 C56.902,418.943,56.899,389.682,74.98,371.603 C74.98,371.603,74.98,371.603,74.98,371.603 C74.98,371.603,74.98,371.603,74.98,371.603 C93.015,353.568,122.362,353.567,140.397,371.603 C158.432,389.639,158.432,418.984,140.398,437.02 C122.365,455.052,93.017,455.056,74.98,437.02 z"/>
            </defs>
            <use xlink:href="#47" style="fill:#ff5e5b;fill-opacity:1;fill-rule:evenodd;opacity:1;stroke:none;"/>
          </g>
        </defs>
        <use xlink:href="#46"/>
        <defs>
          <title>Shape 20</title>
          <g id="48">
            <defs>
              <path id="49" d="M256,387.843 C183.302,387.843,124.157,328.698,124.157,256 C124.157,183.302,183.302,124.157,256,124.157 C328.698,124.157,387.843,183.302,387.843,256 C387.843,328.698,328.698,387.843,256,387.843 z"/>
            </defs>
            <use xlink:href="#49" style="fill:#ff5e5b;fill-opacity:1;fill-rule:evenodd;opacity:1;stroke:none;"/>
          </g>
        </defs>
        <use xlink:href="#48"/>
      </g>
      <g id="50">
        <title>Group</title>
        <defs>
          <title>Shape 21</title>
          <g id="51">
            <defs>
              <path id="52" d="M256,0 C256,30.838,256,61.676,256,92.514 C281.506,92.514,302.257,71.763,302.257,46.257 C302.257,20.751,281.506,0,256,0 z"/>
            </defs>
            <use xlink:href="#52" style="fill:#ff423d;fill-opacity:1;fill-rule:evenodd;opacity:1;stroke:none;"/>
          </g>
        </defs>
        <use xlink:href="#51"/>
        <defs>
          <title>Shape 22</title>
          <g id="53">
            <defs>
              <path id="54" d="M256,124.156 C256,212.052,256,299.948,256,387.844 C328.698,387.844,387.843,328.699,387.843,256.001 C387.843,183.303,328.698,124.156,256,124.156 z"/>
            </defs>
            <use xlink:href="#54" style="fill:#ff423d;fill-opacity:1;fill-rule:evenodd;opacity:1;stroke:none;"/>
          </g>
        </defs>
        <use xlink:href="#53"/>
        <defs>
          <title>Shape 23</title>
          <g id="55">
            <defs>
              <path id="56" d="M256,314.947 C223.497,314.947,197.053,288.503,197.053,256 C197.053,223.497,223.497,197.053,256,197.053 C288.503,197.053,314.947,223.497,314.947,256 C314.947,288.503,288.503,314.947,256,314.947 z"/>
            </defs>
            <use xlink:href="#56" style="fill:#ff423d;fill-opacity:1;fill-rule:evenodd;opacity:1;stroke:none;"/>
          </g>
        </defs>
        <use xlink:href="#55"/>
        <defs>
          <title>Group</title>
          <g id="57">
            <defs>
              <path id="58" d="M256,0 C256,30.838,256,61.676,256,92.514 C281.506,92.514,302.257,71.763,302.257,46.257 C302.257,20.751,281.506,0,256,0 z M256,124.156 C256,212.052,256,299.948,256,387.844 C328.698,387.844,387.843,328.699,387.843,256.001 C387.843,183.303,328.698,124.156,256,124.156 z M256,314.947 C223.497,314.947,197.053,288.503,197.053,256 C197.053,223.497,223.497,197.053,256,197.053 C288.503,197.053,314.947,223.497,314.947,256 C314.947,288.503,288.503,314.947,256,314.947 z"/>
            </defs>
            <use xlink:href="#58" style="fill:#8327b0;fill-opacity:1;fill-rule:nonzero;opacity:1;stroke:none;"/>
          </g>
        </defs>
        <use xlink:href="#57"/>
      </g>
      <defs>
        <title>Shape 24</title>
        <g id="59">
          <defs>
            <path id="60" d="M256,197.053 C256,236.351,256,275.649,256,314.947 C288.503,314.947,314.947,288.503,314.947,256 C314.947,223.497,288.503,197.053,256,197.053 z"/>
          </defs>
          <use xlink:href="#60" style="fill:#8327b0;fill-opacity:1;fill-rule:evenodd;opacity:1;stroke:none;"/>
        </g>
      </defs>
      <use xlink:href="#59"/>
      <g id="61">
        <title>Group</title>
      </g>
      <g id="62">
        <title>Group</title>
      </g>
      <g id="63">
        <title>Group</title>
      </g>
      <g id="64">
        <title>Group</title>
      </g>
      <g id="65">
        <title>Group</title>
      </g>
      <g id="66">
        <title>Group</title>
      </g>
      <g id="67">
        <title>Group</title>
      </g>
      <g id="68">
        <title>Group</title>
      </g>
      <g id="69">
        <title>Group</title>
      </g>
      <g id="70">
        <title>Group</title>
      </g>
      <g id="71">
        <title>Group</title>
      </g>
      <g id="72">
        <title>Group</title>
      </g>
      <g id="73">
        <title>Group</title>
      </g>
      <g id="74">
        <title>Group</title>
      </g>
      <g id="75">
        <title>Group</title>
      </g>
    </g>
    <clipPath id="77">
      <use xlink:href="#76"/>
      <path id="76" d="M0,0 C0,0,512,0,512,0 C512,0,512,512,512,512 C512,512,0,512,0,512 C0,512,0,0,0,0 z"/>
    </clipPath>
    <g id="78" style="clip-path:url(#77);">
      <defs>
        <g id="79">
          <defs>
            <path id="80" d="M371.273,397.081 C355.322,381.13,339.371,365.179,323.42,349.228 C306.372,332.18,332.154,306.346,349.227,323.421 C365.178,339.372,381.129,355.324,397.08,371.275 C414.13,388.322,388.344,414.153,371.273,397.081 z M437.27,274.249 C414.711,274.249,392.153,274.249,369.594,274.249 C345.48,274.249,345.455,237.752,369.594,237.752 C392.153,237.752,414.711,237.752,437.27,237.752 C461.384,237.751,461.409,274.249,437.27,274.249 z M323.42,162.772 C339.371,146.821,355.322,130.87,371.273,114.919 C388.323,97.867,414.149,123.658,397.08,140.726 C381.129,156.677,365.178,172.629,349.227,188.58 C332.176,205.632,306.351,179.841,323.42,162.772 z M371.602,437.02 C371.602,437.02,371.602,437.02,371.602,437.02 C353.567,418.984,353.567,389.638,371.602,371.603 C389.638,353.568,418.984,353.567,437.019,371.603 C455.054,389.639,455.054,418.984,437.019,437.02 C418.985,455.052,389.639,455.056,371.602,437.02 z M465.743,302.256 C440.237,302.256,419.487,281.506,419.487,255.999 C419.487,230.492,440.237,209.742,465.743,209.742 C491.249,209.742,512,230.492,512,255.999 C512,281.506,491.249,302.256,465.743,302.256 z M371.602,140.397 C353.567,122.361,353.567,93.016,371.602,74.98 C389.638,56.945,418.984,56.943,437.019,74.98 C455.054,93.016,455.054,122.361,437.019,140.397 C437.019,140.397,437.019,140.397,437.019,140.397 C418.985,158.432,389.638,158.434,371.602,140.397 z M256,160.653 C245.922,160.653,237.751,152.482,237.751,142.404 C237.751,142.404,237.751,74.73,237.751,74.73 C237.751,50.616,274.248,50.591,274.248,74.73 C274.248,97.2887,274.248,119.847,274.248,142.406 C274.249,152.484,266.078,160.653,256,160.653 z M256,56.481 C256,91.2053,256,125.93,256,160.654 C266.078,160.654,274.249,152.483,274.249,142.405 C274.249,142.405,274.249,74.73,274.249,74.73 C274.249,64.651,266.078,56.481,256,56.481 z M237.751,437.27 C237.751,414.711,237.751,392.153,237.751,369.594 C237.751,345.48,274.248,345.455,274.248,369.594 C274.248,392.153,274.248,414.711,274.248,437.27 C274.249,461.384,237.751,461.409,237.751,437.27 z M256,351.346 C256,386.07,256,420.795,256,455.519 C266.078,455.519,274.249,447.348,274.249,437.27 C274.249,414.711,274.249,392.153,274.249,369.594 C274.249,359.516,266.078,351.346,256,351.346 z M162.772,188.58 C146.821,172.629,130.87,156.677,114.919,140.726 C97.871,123.678,123.653,97.845,140.726,114.919 C156.677,130.87,172.628,146.821,188.579,162.772 C205.629,179.821,179.843,205.652,162.772,188.58 z M142.406,274.249 C142.406,274.249,74.73,274.249,74.73,274.249 C50.616,274.249,50.591,237.752,74.73,237.752 C97.2887,237.752,119.847,237.752,142.406,237.752 C166.519,237.751,166.544,274.249,142.406,274.249 z M114.919,371.273 C130.87,355.322,146.821,339.37,162.772,323.419 C179.822,306.366,205.648,332.158,188.579,349.226 C172.628,365.177,156.677,381.128,140.726,397.079 C123.816,413.991,97.633,388.56,114.919,371.273 z M256,92.514 C230.494,92.514,209.743,71.763,209.743,46.257 C209.743,20.75,230.493,0,256,0 C281.506,0,302.257,20.75,302.257,46.257 C302.257,71.762,281.506,92.514,256,92.514 z M256,512 C230.494,512,209.743,491.25,209.743,465.743 C209.743,440.237,230.494,419.486,256,419.486 C281.506,419.486,302.257,440.237,302.257,465.743 C302.257,491.249,281.506,512,256,512 z M256,419.486 C256,419.486,256,512,256,512 C281.506,512,302.257,491.25,302.257,465.743 C302.257,440.238,281.506,419.486,256,419.486 z M74.98,140.397 C56.902,122.32,56.9,93.06,74.98,74.98 C93.015,56.947,122.362,56.944,140.397,74.98 C140.397,74.98,140.398,74.98,140.398,74.98 C158.433,93.016,158.433,122.361,140.398,140.397 C122.364,158.432,93.017,158.434,74.98,140.397 z M46.257,302.256 C20.751,302.256,0,281.506,0,256 C0,230.494,20.751,209.743,46.257,209.743 C71.763,209.743,92.512,230.493,92.512,256 C92.512,281.507,71.762,302.256,46.257,302.256 z M74.98,437.02 C56.902,418.943,56.899,389.682,74.98,371.603 C74.98,371.603,74.98,371.603,74.98,371.603 C74.98,371.603,74.98,371.603,74.98,371.603 C93.015,353.568,122.362,353.567,140.397,371.603 C158.432,389.639,158.432,418.984,140.398,437.02 C122.365,455.052,93.017,455.056,74.98,437.02 z M256,387.843 C183.302,387.843,124.157,328.698,124.157,256 C124.157,183.302,183.302,124.157,256,124.157 C328.698,124.157,387.843,183.302,387.843,256 C387.843,328.698,328.698,387.843,256,387.843 z M256,0 C256,30.838,256,61.676,256,92.514 C281.506,92.514,302.257,71.763,302.257,46.257 C302.257,20.751,281.506,0,256,0 z M256,124.156 C256,212.052,256,299.948,256,387.844 C328.698,387.844,387.843,328.699,387.843,256.001 C387.843,183.303,328.698,124.156,256,124.156 z M256,314.947 C223.497,314.947,197.053,288.503,197.053,256 C197.053,223.497,223.497,197.053,256,197.053 C288.503,197.053,314.947,223.497,314.947,256 C314.947,288.503,288.503,314.947,256,314.947 z M256,197.053 C256,236.351,256,275.649,256,314.947 C288.503,314.947,314.947,288.503,314.947,256 C314.947,223.497,288.503,197.053,256,197.053 z"/>
          </defs>
          <use xlink:href="#80" style="fill:#9c27b0;fill-opacity:1;fill-rule:nonzero;opacity:1;stroke:none;"/>
        </g>
      </defs>
      <use xlink:href="#79"/>
    </g>
  </g>
</svg>
